<svg width="19" height="19" viewBox="0 0 19 19" fill="none" xmlns="http://www.w3.org/2000/svg">
<path d="M16.1259 6.45547C16.0215 6.35047 15.8974 6.26721 15.7606 6.21048C15.6239 6.15376 15.4773 6.12471 15.3292 6.125H13.0792V5.5625C13.0792 4.51821 12.6644 3.51669 11.926 2.77827C11.1875 2.03984 10.186 1.625 9.14172 1.625C8.09743 1.625 7.09592 2.03984 6.35749 2.77827C5.61907 3.51669 5.20422 4.51821 5.20422 5.5625V6.125H2.95422C2.65586 6.125 2.36971 6.24353 2.15873 6.4545C1.94775 6.66548 1.82922 6.95163 1.82922 7.25V14.8438C1.82922 16.2148 2.98938 17.375 4.36047 17.375H13.923C14.5862 17.3752 15.2232 17.1159 15.6977 16.6525C15.9365 16.4247 16.1266 16.1509 16.2566 15.8476C16.3867 15.5442 16.4539 15.2177 16.4542 14.8877V7.25C16.4547 7.10244 16.4259 6.95626 16.3695 6.81989C16.3132 6.68352 16.2304 6.55966 16.1259 6.45547ZM11.3917 12.3125H9.70422V14C9.70422 14.1492 9.64496 14.2923 9.53947 14.3977C9.43398 14.5032 9.29091 14.5625 9.14172 14.5625C8.99254 14.5625 8.84947 14.5032 8.74398 14.3977C8.63849 14.2923 8.57922 14.1492 8.57922 14V12.3125H6.89172C6.74254 12.3125 6.59947 12.2532 6.49398 12.1477C6.38849 12.0423 6.32922 11.8992 6.32922 11.75C6.32922 11.6008 6.38849 11.4577 6.49398 11.3523C6.59947 11.2468 6.74254 11.1875 6.89172 11.1875H8.57922V9.5C8.57922 9.35082 8.63849 9.20774 8.74398 9.10225C8.84947 8.99676 8.99254 8.9375 9.14172 8.9375C9.29091 8.9375 9.43398 8.99676 9.53947 9.10225C9.64496 9.20774 9.70422 9.35082 9.70422 9.5V11.1875H11.3917C11.5409 11.1875 11.684 11.2468 11.7895 11.3523C11.895 11.4577 11.9542 11.6008 11.9542 11.75C11.9542 11.8992 11.895 12.0423 11.7895 12.1477C11.684 12.2532 11.5409 12.3125 11.3917 12.3125ZM11.9542 6.125H6.32922V5.5625C6.32922 4.81658 6.62554 4.10121 7.15299 3.57376C7.68043 3.04632 8.3958 2.75 9.14172 2.75C9.88764 2.75 10.603 3.04632 11.1305 3.57376C11.6579 4.10121 11.9542 4.81658 11.9542 5.5625V6.125Z" fill="white"/>
</svg>
